<svg width="147" height="94" viewBox="0 0 147 94" fill="none" xmlns="http://www.w3.org/2000/svg">
<path d="M1.18994 85.05V8.61002C1.20994 4.67002 4.36993 1.52 8.29993 1.5H138.08C142.02 1.52 145.17 4.68002 145.19 8.61002V85.05C145.17 88.99 142.01 92.14 138.08 92.16H8.29993C4.35993 92.14 1.20994 88.98 1.18994 85.05Z" fill="#232F3E" stroke="white" stroke-width="2" stroke-miterlimit="10"/>
<path fill-rule="evenodd" clip-rule="evenodd" d="M125.2 16.82C123.32 18.21 120.6 18.94 118.25 18.94C114.96 18.94 112 17.72 109.76 15.7C109.58 15.54 109.74 15.32 109.95 15.45C112.37 16.86 115.36 17.7 118.45 17.7C120.53 17.7 122.82 17.27 124.93 16.37C125.25 16.24 125.51 16.58 125.2 16.81V16.82Z" fill="#F7981D"/>
<path fill-rule="evenodd" clip-rule="evenodd" d="M125.98 15.93C125.74 15.62 124.39 15.78 123.78 15.86C123.6 15.88 123.57 15.72 123.73 15.61C124.81 14.85 126.57 15.07 126.77 15.33C126.98 15.59 126.72 17.35 125.71 18.2C125.55 18.33 125.41 18.26 125.48 18.09C125.71 17.52 126.21 16.25 125.97 15.95L125.98 15.93Z" fill="#F7981D"/>
<path fill-rule="evenodd" clip-rule="evenodd" d="M123.84 10.26V9.53C123.84 9.42 123.92 9.34 124.03 9.34H127.32C127.43 9.34 127.51 9.42002 127.51 9.52002V10.15C127.51 10.26 127.42 10.39 127.26 10.61L125.56 13.04C126.19 13.03 126.86 13.12 127.44 13.44C127.57 13.51 127.6 13.62 127.61 13.73V14.51C127.61 14.62 127.49 14.74 127.37 14.68C126.36 14.15 125.01 14.09 123.89 14.68C123.78 14.74 123.66 14.62 123.66 14.51V13.77C123.66 13.65 123.66 13.45 123.78 13.27L125.76 10.44H124.04C123.93 10.44 123.85 10.36 123.85 10.25L123.84 10.26Z" fill="white"/>
<path fill-rule="evenodd" clip-rule="evenodd" d="M111.83 14.85H110.83C110.73 14.85 110.66 14.77 110.65 14.68V9.54001C110.65 9.44001 110.74 9.36002 110.84 9.36002H111.77C111.87 9.36002 111.95 9.44 111.95 9.53V10.2H111.97C112.21 9.55001 112.67 9.25 113.29 9.25C113.91 9.25 114.31 9.55001 114.59 10.2C114.83 9.55001 115.38 9.25 115.97 9.25C116.39 9.25 116.85 9.42 117.13 9.81C117.45 10.24 117.38 10.87 117.38 11.42V14.66C117.38 14.76 117.29 14.84 117.19 14.84H116.19C116.09 14.84 116.01 14.75 116.01 14.66V11.94C116.01 11.72 116.03 11.18 115.98 10.98C115.91 10.63 115.68 10.54 115.39 10.54C115.15 10.54 114.89 10.7 114.79 10.96C114.69 11.22 114.7 11.65 114.7 11.94V14.66C114.7 14.76 114.61 14.84 114.51 14.84H113.51C113.41 14.84 113.33 14.75 113.33 14.66V11.94C113.33 11.37 113.42 10.52 112.71 10.52C112 10.52 112.02 11.34 112.02 11.94V14.66C112.02 14.76 111.93 14.84 111.83 14.84V14.85Z" fill="white"/>
<path fill-rule="evenodd" clip-rule="evenodd" d="M130.34 9.25C131.83 9.25 132.63 10.53 132.63 12.15C132.63 13.77 131.74 14.96 130.34 14.96C128.94 14.96 128.09 13.68 128.09 12.09C128.09 10.5 128.89 9.25 130.34 9.25ZM130.35 10.3C129.61 10.3 129.57 11.31 129.57 11.93C129.57 12.55 129.57 13.9 130.35 13.9C131.13 13.9 131.16 12.82 131.16 12.16C131.16 11.73 131.14 11.21 131.01 10.8C130.9 10.44 130.67 10.3 130.36 10.3H130.35Z" fill="white"/>
<path fill-rule="evenodd" clip-rule="evenodd" d="M134.55 14.85H133.55C133.45 14.85 133.37 14.76 133.37 14.67V9.53C133.37 9.44 133.46 9.36002 133.56 9.36002H134.49C134.58 9.36002 134.65 9.42 134.67 9.5V10.29H134.69C134.97 9.59001 135.36 9.25 136.05 9.25C136.5 9.25 136.94 9.41002 137.22 9.86002C137.48 10.27 137.48 10.96 137.48 11.46V14.69C137.47 14.78 137.39 14.85 137.29 14.85H136.29C136.2 14.85 136.12 14.78 136.11 14.69V11.9C136.11 11.34 136.18 10.52 135.48 10.52C135.24 10.52 135.01 10.68 134.9 10.93C134.76 11.24 134.74 11.56 134.74 11.9V14.67C134.74 14.77 134.65 14.85 134.55 14.85Z" fill="white"/>
<path fill-rule="evenodd" clip-rule="evenodd" d="M121.21 12.4C121.21 12.79 121.21 13.12 121.02 13.46C120.86 13.74 120.61 13.92 120.33 13.92C119.95 13.92 119.72 13.63 119.72 13.19C119.72 12.34 120.48 12.18 121.21 12.18V12.4ZM122.22 14.84C122.15 14.9 122.06 14.9 121.98 14.86C121.65 14.58 121.59 14.46 121.41 14.19C120.86 14.75 120.47 14.92 119.76 14.92C118.92 14.92 118.26 14.4 118.26 13.36C118.26 12.55 118.7 11.99 119.33 11.72C119.87 11.48 120.63 11.44 121.21 11.37V11.24C121.21 11 121.23 10.72 121.09 10.51C120.97 10.33 120.73 10.25 120.53 10.25C120.15 10.25 119.81 10.45 119.73 10.85C119.71 10.94 119.65 11.03 119.56 11.03L118.59 10.92C118.51 10.9 118.42 10.84 118.44 10.71C118.66 9.53002 119.73 9.18002 120.68 9.18002C121.17 9.18002 121.8 9.31002 122.19 9.68002C122.68 10.14 122.63 10.74 122.63 11.4V12.96C122.63 13.43 122.83 13.64 123.01 13.89C123.07 13.98 123.09 14.09 123.01 14.16C122.81 14.33 122.44 14.65 122.24 14.82L122.22 14.84Z" fill="white"/>
<path fill-rule="evenodd" clip-rule="evenodd" d="M108.09 12.4C108.09 12.79 108.09 13.12 107.9 13.46C107.74 13.74 107.49 13.92 107.21 13.92C106.83 13.92 106.6 13.63 106.6 13.19C106.6 12.34 107.37 12.18 108.09 12.18V12.4ZM109.1 14.84C109.03 14.9 108.94 14.9 108.86 14.86C108.53 14.58 108.47 14.46 108.29 14.19C107.74 14.75 107.35 14.92 106.64 14.92C105.8 14.92 105.14 14.4 105.14 13.36C105.14 12.55 105.58 11.99 106.21 11.72C106.75 11.48 107.51 11.44 108.09 11.37V11.24C108.09 11 108.11 10.72 107.97 10.51C107.85 10.33 107.61 10.25 107.41 10.25C107.03 10.25 106.69 10.45 106.61 10.85C106.59 10.94 106.53 11.03 106.44 11.03L105.47 10.92C105.39 10.9 105.3 10.84 105.32 10.71C105.54 9.53002 106.61 9.18002 107.56 9.18002C108.05 9.18002 108.68 9.31002 109.07 9.68002C109.56 10.14 109.51 10.74 109.51 11.4V12.96C109.51 13.43 109.7 13.64 109.89 13.89C109.95 13.98 109.97 14.09 109.89 14.16C109.69 14.33 109.32 14.65 109.12 14.82L109.1 14.84Z" fill="white"/>
<path fill-rule="evenodd" clip-rule="evenodd" d="M107.96 48.86C98.59 55.78 84.9899 59.46 73.2699 59.46C56.8599 59.46 42.0899 53.4 30.8999 43.29C30.0099 42.51 30.8 41.42 31.86 42.03C43.93 49.05 58.85 53.29 74.25 53.29C84.65 53.29 96.08 51.13 106.6 46.66C108.19 45.99 109.52 47.71 107.96 48.86Z" fill="#F7981D"/>
<path fill-rule="evenodd" clip-rule="evenodd" d="M111.88 44.4C110.68 42.86 103.94 43.68 100.92 44.04C99.9999 44.15 99.8599 43.34 100.68 42.77C106.05 39 114.86 40.09 115.87 41.35C116.91 42.63 115.61 51.45 110.58 55.65C109.8 56.3 109.06 55.97 109.41 55.1C110.53 52.26 113.07 45.94 111.88 44.4Z" fill="#F7981D"/>
<path d="M16.9917 18.1805V16.7348C16.1306 16.6716 15.3762 16.4307 14.7284 16.012V14.6848C15.2972 14.9455 15.7475 15.1311 16.0793 15.2417C16.4111 15.3523 16.7152 15.4195 16.9917 15.4432V13.1561L16.5177 12.9784C15.8541 12.7335 15.3722 12.4412 15.072 12.1015C14.7718 11.7539 14.6217 11.3273 14.6217 10.8217C14.6217 10.1502 14.839 9.59321 15.2735 9.15081C15.708 8.70841 16.2807 8.45561 16.9917 8.39241V6.95856H17.8686V8.40426C18.4848 8.46746 19.0813 8.66101 19.658 8.98491V10.3121C19.0023 9.97241 18.4058 9.76701 17.8686 9.69591V11.9711L18.2834 12.1252C19.0023 12.3859 19.5158 12.6861 19.8239 13.0258C20.132 13.3655 20.286 13.7881 20.286 14.2937C20.286 14.9494 20.0648 15.4985 19.6224 15.9409C19.1879 16.3754 18.6033 16.6361 17.8686 16.723V18.1805H16.9917ZM18.7811 14.4004C18.7811 14.1634 18.71 13.9698 18.5678 13.8197C18.4256 13.6617 18.1925 13.5235 17.8686 13.405V15.4313C18.1293 15.3997 18.3466 15.2852 18.5204 15.0877C18.6942 14.8902 18.7811 14.6611 18.7811 14.4004ZM16.103 10.715C16.103 10.9441 16.1701 11.1377 16.3044 11.2957C16.4466 11.4537 16.6757 11.5959 16.9917 11.7223V9.68406C16.7152 9.72356 16.498 9.83811 16.34 10.0277C16.182 10.2094 16.103 10.4385 16.103 10.715ZM24.1247 16.64V10.1581L22.0154 10.8217V9.47076L24.3261 8.42796H25.8785V16.64H24.1247ZM31.3287 15.3958C31.8106 15.3958 32.1543 15.1746 32.3597 14.7322C32.5651 14.2898 32.6678 13.5511 32.6678 12.5162C32.6678 11.4892 32.5651 10.7545 32.3597 10.3121C32.1543 9.86971 31.8106 9.64851 31.3287 9.64851C30.8468 9.64851 30.5032 9.86971 30.2978 10.3121C30.0924 10.7545 29.9897 11.4892 29.9897 12.5162C29.9897 13.5511 30.0924 14.2898 30.2978 14.7322C30.5032 15.1746 30.8468 15.3958 31.3287 15.3958ZM31.3287 16.8178C30.3254 16.8178 29.5552 16.4465 29.018 15.7039C28.4808 14.9613 28.2122 13.8987 28.2122 12.5162C28.2122 11.1416 28.4808 10.083 29.018 9.34041C29.5631 8.59781 30.3333 8.22651 31.3287 8.22651C32.3241 8.22651 33.0904 8.59781 33.6276 9.34041C34.1727 10.083 34.4453 11.1416 34.4453 12.5162C34.4453 13.8987 34.1767 14.9613 33.6395 15.7039C33.1023 16.4465 32.332 16.8178 31.3287 16.8178Z" fill="white"/>
</svg>
