<?xml version="1.0" encoding="UTF-8"?>
<svg id="Layer_2" data-name="Layer 2" xmlns="http://www.w3.org/2000/svg" viewBox="0 0 146 92.67">
  <defs>
    <style>
      .cls-1 {
        font-family: AmazonEmber-Bold, 'Amazon Ember';
        font-size: 11.85px;
        font-weight: 700;
      }

      .cls-1, .cls-2 {
        fill: #fff;
      }

      .cls-3 {
        fill: #f7981d;
      }

      .cls-3, .cls-2 {
        fill-rule: evenodd;
        stroke-width: 0px;
      }

      .cls-4 {
        fill: #232f3e;
        stroke: #fff;
        stroke-miterlimit: 10;
        stroke-width: 2px;
      }
    </style>
  </defs>
  <g id="Front_2" data-name="Front 2">
    <g id="Gift_Card" data-name="Gift Card">
      <path class="cls-4" d="M1,84.56V8.11c.02-3.94,3.18-7.09,7.11-7.11h129.78c3.94.02,7.09,3.18,7.11,7.11v76.44c-.02,3.94-3.18,7.09-7.11,7.11H8.11c-3.94-.02-7.09-3.18-7.11-7.11Z"/>
      <g>
        <g>
          <path class="cls-3" d="M125.01,16.33c-1.88,1.39-4.6,2.12-6.95,2.12-3.29,0-6.25-1.22-8.49-3.24-.18-.16-.02-.38.19-.25,2.42,1.41,5.41,2.25,8.5,2.25,2.08,0,4.37-.43,6.48-1.33.32-.13.58.21.27.44Z"/>
          <path class="cls-3" d="M125.79,15.43c-.24-.31-1.59-.15-2.2-.07-.18.02-.21-.14-.05-.25,1.08-.76,2.84-.54,3.04-.28.21.26-.05,2.02-1.06,2.87-.16.13-.3.06-.23-.11.23-.57.73-1.84.49-2.14Z"/>
        </g>
        <g>
          <path class="cls-2" d="M123.65,9.77v-.73c0-.11.08-.19.19-.19h3.29c.11,0,.19.08.19.18v.63c0,.11-.09.24-.25.46l-1.7,2.43c.63-.01,1.3.08,1.88.4.13.07.16.18.17.29v.78c0,.11-.12.23-.24.17-1.01-.53-2.36-.59-3.48,0-.11.06-.23-.06-.23-.17v-.74c0-.12,0-.32.12-.5l1.98-2.83h-1.72c-.11,0-.19-.08-.19-.19Z"/>
          <path class="cls-2" d="M111.64,14.35h-1c-.1,0-.17-.08-.18-.17v-5.14c0-.1.09-.18.19-.18h.93c.1,0,.18.08.18.17v.67s.02,0,.02,0c.24-.65.7-.95,1.32-.95s1.02.3,1.3.95c.24-.65.79-.95,1.38-.95.42,0,.88.17,1.16.56.32.43.25,1.06.25,1.61v3.24c0,.1-.09.18-.19.18h-1c-.1,0-.18-.09-.18-.18v-2.72c0-.22.02-.76-.03-.96-.07-.35-.3-.44-.59-.44-.24,0-.5.16-.6.42-.1.26-.09.69-.09.98v2.72c0,.1-.09.18-.19.18h-1c-.1,0-.18-.09-.18-.18v-2.72c0-.57.09-1.42-.62-1.42s-.69.82-.69,1.42v2.72c0,.1-.09.18-.19.18Z"/>
          <path class="cls-2" d="M130.15,8.75c1.49,0,2.29,1.28,2.29,2.9,0,1.57-.89,2.81-2.29,2.81s-2.25-1.28-2.25-2.87.8-2.84,2.25-2.84ZM130.16,9.8c-.74,0-.78,1.01-.78,1.63,0,.63,0,1.97.78,1.97s.81-1.08.81-1.74c0-.43-.02-.95-.15-1.36-.11-.36-.34-.5-.65-.5Z"/>
          <path class="cls-2" d="M134.36,14.35h-1c-.1,0-.18-.09-.18-.18v-5.14c0-.09.09-.17.19-.17h.93c.09,0,.16.06.18.14v.79s.02,0,.02,0c.28-.7.67-1.04,1.36-1.04.45,0,.89.16,1.17.61.26.41.26,1.1.26,1.6v3.23c-.01.09-.09.16-.19.16h-1c-.09,0-.17-.07-.18-.16v-2.79c0-.56.07-1.38-.63-1.38-.24,0-.47.16-.58.41-.14.31-.16.63-.16.97v2.77c0,.1-.09.18-.19.18Z"/>
          <path class="cls-2" d="M121.02,11.9c0,.39,0,.72-.19,1.06-.16.28-.41.46-.69.46-.38,0-.61-.29-.61-.73,0-.85.76-1.01,1.49-1.01v.22ZM122.03,14.34c-.07.06-.16.06-.24.02-.33-.28-.39-.4-.57-.67-.55.56-.94.73-1.65.73-.84,0-1.5-.52-1.5-1.56,0-.81.44-1.37,1.07-1.64.54-.24,1.3-.28,1.88-.35v-.13c0-.24.02-.52-.12-.73-.12-.18-.36-.26-.56-.26-.38,0-.72.2-.8.6-.02.09-.08.18-.17.18l-.97-.11c-.08-.02-.17-.08-.15-.21.22-1.18,1.29-1.53,2.24-1.53.49,0,1.12.13,1.51.5.49.46.44,1.06.44,1.72v1.56c0,.47.2.68.38.93.06.09.08.2,0,.27-.2.17-.57.49-.77.66h0Z"/>
          <path class="cls-2" d="M107.9,11.9c0,.39,0,.72-.19,1.06-.16.28-.41.46-.69.46-.38,0-.61-.29-.61-.73,0-.85.77-1.01,1.49-1.01v.22ZM108.91,14.34c-.07.06-.16.06-.24.02-.33-.28-.39-.4-.57-.67-.55.56-.94.73-1.65.73-.84,0-1.5-.52-1.5-1.56,0-.81.44-1.37,1.07-1.64.54-.24,1.3-.28,1.88-.35v-.13c0-.24.02-.52-.12-.73-.12-.18-.36-.26-.56-.26-.38,0-.72.2-.8.6-.02.09-.08.18-.17.18l-.97-.11c-.08-.02-.17-.08-.15-.21.22-1.18,1.29-1.53,2.24-1.53.49,0,1.12.13,1.51.5.49.46.44,1.06.44,1.72v1.56c0,.47.19.68.38.93.06.09.08.2,0,.27-.2.17-.57.49-.77.66h0Z"/>
        </g>
      </g>
      <g>
        <path class="cls-3" d="M107.77,48.37c-9.37,6.92-22.97,10.6-34.69,10.6-16.41,0-31.18-6.06-42.37-16.17-.89-.78-.1-1.87.96-1.26,12.07,7.02,26.99,11.26,42.39,11.26,10.4,0,21.83-2.16,32.35-6.63,1.59-.67,2.92,1.05,1.36,2.2Z"/>
        <path class="cls-3" d="M111.69,43.91c-1.2-1.54-7.94-.72-10.96-.36-.92.11-1.06-.7-.24-1.27,5.37-3.77,14.18-2.68,15.19-1.42,1.04,1.28-.26,10.1-5.29,14.3-.78.65-1.52.32-1.17-.55,1.12-2.84,3.66-9.16,2.47-10.7Z"/>
      </g>
      <text class="cls-1" transform="translate(13.78 17)"><tspan x="0" y="0">$25</tspan></text>
    </g>
  </g>
</svg>