<svg width="95" height="28" viewBox="0 0 95 28" fill="none" xmlns="http://www.w3.org/2000/svg">
<path d="M57.2001 21.7C51.6801 25.77 43.68 27.94 36.79 27.94C27.13 27.94 18.4301 24.37 11.8501 18.42C11.3301 17.95 11.8 17.32 12.42 17.68C19.52 21.81 28.3001 24.3 37.3701 24.3C43.4901 24.3 50.21 23.03 56.4 20.41C57.33 20.01 58.1201 21.02 57.2001 21.7Z" fill="#FF9900"/>
<path d="M59.4901 19.07C58.7901 18.17 54.8301 18.64 53.0501 18.85C52.5101 18.92 52.4301 18.44 52.9101 18.11C56.0701 15.89 61.2401 16.53 61.8501 17.27C62.4501 18.02 61.6901 23.21 58.7301 25.69C58.2801 26.07 57.8401 25.87 58.0401 25.36C58.7101 23.7 60.2001 19.97 59.4901 19.07Z" fill="#FF9900"/>
<path d="M54.91 3.12998V0.969986C54.91 0.639986 55.1601 0.419983 55.4601 0.419983H65.12C65.43 0.419983 65.6801 0.639986 65.6801 0.969986V2.81998C65.6801 3.12998 65.4201 3.53999 64.9501 4.17999L59.9401 11.33C61.8001 11.28 63.7701 11.56 65.4501 12.51C65.8301 12.73 65.9301 13.04 65.9601 13.35V15.65C65.9601 15.96 65.61 16.33 65.25 16.14C62.28 14.58 58.33 14.41 55.04 16.16C54.71 16.34 54.3501 15.98 54.3501 15.66V13.47C54.3501 13.12 54.3501 12.52 54.7101 11.99L60.51 3.66998H55.4601C55.1501 3.66998 54.9 3.44998 54.9 3.12998" fill="#232F3E"/>
<path d="M19.66 16.6H16.7201C16.4401 16.58 16.2201 16.37 16.1901 16.1V1.01002C16.1901 0.710017 16.44 0.470016 16.76 0.470016H19.5C19.79 0.480016 20.01 0.700016 20.03 0.970016V2.94002H20.0801C20.8001 1.03002 22.1401 0.140015 23.9501 0.140015C25.7601 0.140015 26.94 1.03002 27.77 2.94002C28.48 1.03002 30.1001 0.140015 31.8301 0.140015C33.0601 0.140015 34.4101 0.650016 35.2301 1.79002C36.1601 3.06002 35.9701 4.90001 35.9701 6.52001V16.04C35.9701 16.34 35.71 16.59 35.4 16.59H32.4601C32.1701 16.57 31.9301 16.33 31.9301 16.04V8.04002C31.9301 7.40002 31.9901 5.82001 31.8501 5.21001C31.6301 4.20001 30.97 3.91002 30.12 3.91002C29.41 3.91002 28.6601 4.39002 28.3601 5.15002C28.0601 5.91002 28.0901 7.18002 28.0901 8.04002V16.04C28.0901 16.34 27.84 16.59 27.52 16.59H24.5801C24.2801 16.57 24.05 16.33 24.05 16.04V8.04002C24.05 6.36002 24.3201 3.88001 22.2301 3.88001C20.1401 3.88001 20.2001 6.30002 20.2001 8.04002V16.04C20.2001 16.34 19.95 16.59 19.63 16.59" fill="#232F3E"/>
<path d="M74 0.150017C78.36 0.150017 80.7201 3.90002 80.7201 8.66002C80.7201 13.42 78.11 16.91 74 16.91C69.89 16.91 67.38 13.16 67.38 8.49001C67.38 3.82001 69.74 0.140015 74 0.140015M74.03 3.23002C71.86 3.23002 71.7301 6.18001 71.7301 8.02001C71.7301 9.86001 71.7 13.8 74.01 13.8C76.32 13.8 76.4 10.62 76.4 8.69002C76.4 7.42002 76.3501 5.89002 75.9601 4.69002C75.6301 3.64002 74.97 3.23002 74.04 3.23002" fill="#232F3E"/>
<path d="M86.38 16.6H83.4501C83.1601 16.58 82.92 16.34 82.92 16.05V0.959991C82.94 0.679991 83.1801 0.469994 83.4801 0.469994H86.2101C86.4701 0.479994 86.6801 0.659992 86.7401 0.889992V3.19999H86.79C87.61 1.13999 88.77 0.149994 90.8 0.149994C92.12 0.149994 93.4101 0.629993 94.2301 1.92999C95.0001 3.13999 95 5.16999 95 6.62999V16.13C94.97 16.39 94.7201 16.61 94.4301 16.61H91.4801C91.2101 16.59 90.9901 16.39 90.9601 16.13V7.92999C90.9601 6.27999 91.15 3.87 89.12 3.87C88.4 3.87 87.75 4.34999 87.42 5.07999C87.01 5.99999 86.9501 6.91999 86.9501 7.93999V16.07C86.9501 16.37 86.69 16.62 86.38 16.62" fill="#232F3E"/>
<path d="M47.2101 9.4V8.76C45.0801 8.76 42.8401 9.21 42.8401 11.72C42.8401 12.99 43.5 13.85 44.63 13.85C45.46 13.85 46.2 13.34 46.66 12.51C47.24 11.49 47.2101 10.54 47.2101 9.39M50.17 16.56C49.98 16.73 49.6901 16.75 49.4801 16.63C48.5001 15.82 48.33 15.44 47.79 14.67C46.18 16.32 45.0401 16.81 42.9401 16.81C40.4701 16.81 38.54 15.28 38.54 12.23C38.54 9.84 39.83 8.22 41.67 7.42C43.27 6.72 45.5001 6.59 47.2001 6.4V6.02C47.2001 5.32 47.2501 4.49 46.8401 3.89C46.4801 3.35 45.7901 3.12 45.1901 3.12C44.0701 3.12 43.0701 3.69 42.8201 4.89C42.7701 5.15 42.5801 5.42 42.3101 5.43L39.4601 5.12C39.2201 5.07 38.96 4.87 39.02 4.5C39.68 1.04 42.8001 0 45.6001 0C47.0301 0 48.9 0.379999 50.03 1.46C51.46 2.8 51.3201 4.58 51.3201 6.52V11.1C51.3201 12.48 51.8901 13.08 52.4301 13.83C52.6201 14.09 52.6601 14.41 52.4301 14.61C51.8301 15.11 50.7601 16.04 50.1801 16.56" fill="#232F3E"/>
<path d="M8.66003 9.4V8.76C6.53003 8.76 4.29004 9.21 4.29004 11.72C4.29004 12.99 4.95008 13.85 6.08008 13.85C6.91008 13.85 7.65011 13.34 8.11011 12.51C8.69011 11.49 8.66003 10.54 8.66003 9.39M11.63 16.56C11.44 16.73 11.1501 16.75 10.9401 16.63C9.96006 15.82 9.79 15.44 9.25 14.67C7.64 16.32 6.50002 16.81 4.40002 16.81C1.93002 16.81 0 15.28 0 12.23C0 9.84 1.29 8.22 3.13 7.42C4.73 6.72 6.96003 6.59 8.66003 6.4V6.02C8.66003 5.32 8.71005 4.49 8.30005 3.89C7.94005 3.35 7.25002 3.12 6.65002 3.12C5.53002 3.12 4.53003 3.69 4.28003 4.89C4.23003 5.15 4.04002 5.42 3.77002 5.43L0.920044 5.12C0.680044 5.07 0.420103 4.87 0.480103 4.5C1.1401 1.04 4.26006 0 7.06006 0C8.49006 0 10.3601 0.379999 11.4901 1.46C12.9201 2.8 12.78 4.58 12.78 6.52V11.1C12.78 12.48 13.35 13.08 13.89 13.83C14.08 14.09 14.12 14.41 13.89 14.61C13.29 15.11 12.22 16.04 11.64 16.56" fill="#232F3E"/>
</svg>
