<svg width="91" height="27" viewBox="0 0 91 27" fill="none" xmlns="http://www.w3.org/2000/svg">
<path d="M54.6261 21.0407C49.3545 24.9275 41.7144 26.9999 35.1344 26.9999C25.9091 26.9999 17.6007 23.5905 11.3167 17.9083C10.8201 17.4594 11.2689 16.8578 11.861 17.2016C18.6416 21.1457 27.0265 23.5237 35.6884 23.5237C41.533 23.5237 47.9506 22.3108 53.862 19.8087C54.7502 19.4267 55.5047 20.3913 54.6261 21.0407Z" fill="#FF9900"/>
<path d="M56.8132 18.5286C56.1447 17.6691 52.3628 18.1179 50.6629 18.3185C50.1472 18.3853 50.0708 17.9269 50.5292 17.6118C53.547 15.4917 58.4845 16.1029 59.067 16.8096C59.64 17.5258 58.9142 22.4823 56.0874 24.8507C55.6577 25.2136 55.2374 25.0226 55.4284 24.5356C56.0682 22.9503 57.4913 19.3881 56.8132 18.5286Z" fill="#FF9900"/>
<path d="M52.439 2.98845V0.925645C52.439 0.610494 52.6778 0.400391 52.9643 0.400391H62.1896C62.4856 0.400391 62.7244 0.610494 62.7244 0.925645V2.6924C62.7244 2.98845 62.4761 3.38 62.0273 3.9912L57.2427 10.8195C59.019 10.7717 60.9004 11.0391 62.5048 11.9464C62.8677 12.1565 62.9632 12.4525 62.9919 12.7486V14.9451C62.9919 15.2411 62.6575 15.5945 62.3137 15.413C59.4774 13.9232 55.7052 13.7609 52.5632 15.4321C52.248 15.604 51.9043 15.2602 51.9043 14.9546V12.8632C51.9043 12.5289 51.9043 11.9559 52.2481 11.4498L57.787 3.50415H52.9643C52.6683 3.50415 52.4295 3.29405 52.4295 2.98845" fill="black"/>
<path d="M18.7755 15.8529H15.9678C15.7004 15.8338 15.4903 15.6332 15.4617 15.3754V0.9644C15.4617 0.677899 15.7004 0.448697 16.006 0.448697H18.6227C18.8996 0.458247 19.1097 0.668348 19.1288 0.926199V2.80755H19.1766C19.8642 0.9835 21.1439 0.133545 22.8725 0.133545C24.6011 0.133545 25.7279 0.9835 26.5206 2.80755C27.1986 0.9835 28.7458 0.133545 30.3979 0.133545C31.5726 0.133545 32.8619 0.620598 33.645 1.7093C34.5331 2.92215 34.3516 4.67935 34.3516 6.22646V15.3181C34.3516 15.6046 34.1033 15.8433 33.8072 15.8433H30.9996C30.7226 15.8242 30.4934 15.595 30.4934 15.3181V7.67806C30.4934 7.06686 30.5507 5.55796 30.417 4.97541C30.2069 4.01085 29.5765 3.73391 28.7648 3.73391C28.0867 3.73391 27.3706 4.19231 27.0841 4.91811C26.7976 5.64391 26.8262 6.85676 26.8262 7.67806V15.3181C26.8262 15.6046 26.5874 15.8433 26.2818 15.8433H23.4742C23.1877 15.8242 22.968 15.595 22.968 15.3181V7.67806C22.968 6.07366 23.2259 3.70525 21.2299 3.70525C19.234 3.70525 19.2912 6.01636 19.2912 7.67806V15.3181C19.2912 15.6046 19.0524 15.8433 18.7468 15.8433" fill="black"/>
<path d="M70.6699 0.143097C74.8337 0.143097 77.0876 3.72436 77.0876 8.27017C77.0876 12.816 74.5949 16.1489 70.6699 16.1489C66.7448 16.1489 64.3478 12.5677 64.3478 8.10781C64.3478 3.64795 66.6016 0.133545 70.6699 0.133545M70.6986 3.08451C68.6262 3.08451 68.5021 5.90176 68.5021 7.65896C68.5021 9.41616 68.4734 13.1789 70.6794 13.1789C72.8855 13.1789 72.9619 10.142 72.9619 8.29882C72.9619 7.08596 72.9142 5.62481 72.5418 4.47881C72.2266 3.47606 71.5963 3.08451 70.7081 3.08451" fill="black"/>
<path d="M82.493 15.8521H79.6949C79.4179 15.833 79.1887 15.6038 79.1887 15.3269V0.915883C79.2078 0.648483 79.4371 0.447934 79.7236 0.447934H82.3307C82.579 0.457484 82.7796 0.629383 82.8369 0.849034V3.05509H82.8846C83.6677 1.08778 84.7755 0.142334 86.7141 0.142334C87.9747 0.142334 89.2068 0.600734 89.9899 1.84224C90.7252 2.99779 90.7251 4.93644 90.7251 6.33074V15.4033C90.6965 15.6516 90.4578 15.8617 90.1808 15.8617H87.3636C87.1057 15.8426 86.8956 15.6516 86.867 15.4033V7.57225C86.867 5.9965 87.0483 3.69494 85.1097 3.69494C84.4221 3.69494 83.8014 4.15334 83.4862 4.8505C83.0947 5.7291 83.0374 6.6077 83.0374 7.5818V15.346C83.0374 15.6325 82.789 15.8712 82.493 15.8712" fill="black"/>
<path d="M45.0856 8.97702V8.36582C43.0514 8.36582 40.9122 8.79557 40.9122 11.1926C40.9122 12.4055 41.5424 13.2268 42.6216 13.2268C43.4142 13.2268 44.121 12.7397 44.5603 11.9471C45.1142 10.973 45.0856 10.0657 45.0856 8.96747M47.9123 15.8148C47.7309 15.9772 47.454 15.9963 47.2535 15.8817C46.3175 15.1081 46.1551 14.7452 45.6394 14.0099C44.1019 15.5856 43.0132 16.0536 41.0077 16.0536C38.6488 16.0536 36.8057 14.5924 36.8057 11.6797C36.8057 9.39723 38.0376 7.85012 39.7948 7.08612C41.3228 6.41761 43.4525 6.29347 45.076 6.11202V5.74911C45.076 5.08061 45.1238 4.28796 44.7322 3.71496C44.3884 3.19926 43.7295 2.97961 43.1565 2.97961C42.0869 2.97961 41.1319 3.52396 40.8931 4.66996C40.8454 4.91826 40.6639 5.17611 40.406 5.18566L37.6843 4.88962C37.4551 4.84186 37.2067 4.65086 37.264 4.29751C37.8943 0.993202 40.874 0 43.548 0C44.9137 0 46.6995 0.3629 47.7786 1.3943C49.1443 2.67401 49.0106 4.37391 49.0106 6.22661V10.6005C49.0106 11.9184 49.555 12.4914 50.0707 13.2077C50.2521 13.456 50.2903 13.7616 50.0707 13.9526C49.4977 14.4301 48.4758 15.3182 47.9219 15.8148" fill="black"/>
<path d="M8.27035 8.97702V8.36582C6.2362 8.36582 4.097 8.79557 4.097 11.1926C4.097 12.4055 4.72734 13.2268 5.80649 13.2268C6.59914 13.2268 7.30587 12.7397 7.74517 11.9471C8.29907 10.973 8.27035 10.0657 8.27035 8.96747M11.1067 15.8148C10.9252 15.9772 10.6483 15.9963 10.4478 15.8817C9.51188 15.1081 9.34947 14.7452 8.83377 14.0099C7.29622 15.5856 6.20754 16.0536 4.20203 16.0536C1.84318 16.0536 0 14.5924 0 11.6797C0 9.39723 1.23196 7.85012 2.98916 7.08612C4.51717 6.41761 6.64685 6.29347 8.27035 6.11202V5.74911C8.27035 5.08061 8.31812 4.28796 7.92657 3.71496C7.58277 3.19926 6.92379 2.97961 6.35079 2.97961C5.28119 2.97961 4.32619 3.52396 4.08744 4.66996C4.03969 4.91826 3.85823 5.17611 3.60038 5.18566L0.878644 4.88962C0.649444 4.84186 0.401199 4.65086 0.458499 4.29751C1.0888 0.993202 4.06837 0 6.74237 0C8.10803 0 9.89393 0.3629 10.9731 1.3943C12.3387 2.67401 12.205 4.37391 12.205 6.22661V10.6005C12.205 11.9184 12.7493 12.4914 13.265 13.2077C13.4464 13.456 13.4846 13.7616 13.265 13.9526C12.692 14.4301 11.6701 15.3182 11.1162 15.8148" fill="black"/>
</svg>
