<svg width="87" height="20" viewBox="0 0 87 20" fill="none" xmlns="http://www.w3.org/2000/svg">
<path fill-rule="evenodd" clip-rule="evenodd" d="M77.9399 8.92002C68.5699 15.84 54.9699 19.52 43.2499 19.52C26.8399 19.52 12.0699 13.46 0.879884 3.35002C-0.0101162 2.57002 0.779967 1.48001 1.83997 2.09001C13.91 9.11001 28.83 13.35 44.23 13.35C54.63 13.35 66.06 11.19 76.58 6.72001C78.17 6.05001 79.4999 7.77002 77.9399 8.92002Z" fill="#F7981D"/>
<path fill-rule="evenodd" clip-rule="evenodd" d="M81.8598 4.46003C80.6598 2.92003 73.9199 3.74002 70.8999 4.10002C69.9799 4.21002 69.8399 3.40003 70.6599 2.83003C76.0299 -0.939972 84.8399 0.150015 85.8499 1.41001C86.8899 2.69001 85.5899 11.51 80.5599 15.71C79.7799 16.36 79.0399 16.03 79.3899 15.16C80.5099 12.32 83.0498 6.00003 81.8598 4.46003Z" fill="#F7981D"/>
</svg>
